<svg viewBox="0 0 25 24" fill="none" xmlns="http://www.w3.org/2000/svg">
<g clip-path="url(#clip0_1504_16484)">
<path d="M12.8291 0.749512C19.0423 0.749512 24.079 5.78636 24.0791 11.9995C24.0791 18.2127 19.0423 23.2495 12.8291 23.2495C6.61593 23.2495 1.5791 18.2127 1.5791 11.9995C1.57916 5.78639 6.61597 0.749553 12.8291 0.749512ZM12.8291 2.15576C7.39262 2.1558 2.98541 6.56304 2.98535 11.9995C2.98535 17.436 7.39258 21.8432 12.8291 21.8433C18.2657 21.8433 22.6729 17.4361 22.6729 11.9995C22.6728 6.56301 18.2656 2.15576 12.8291 2.15576ZM19.916 8.36572L15.1123 9.06006L15.5361 14.1528H15.1299L16.8926 19.4253L15.8398 20.1919L13.4043 14.1538L12.5234 14.1646L10.0107 20.1909L8.95801 19.4243L10.7969 14.1606L10.3154 14.1489L10.7402 9.06006L5.93555 8.36572V7.06299L11.0869 7.77979H14.7656L19.916 7.06299V8.36572ZM11.7285 12.8521H14.123L13.8086 9.08057H12.043L11.7285 12.8521ZM12.9307 4.35693C13.6889 4.38086 14.2966 5.00312 14.2969 5.76709C14.2969 6.53125 13.6891 7.15429 12.9307 7.17822H12.9219C12.1634 7.15434 11.5557 6.53128 11.5557 5.76709C11.5559 5.00309 12.1636 4.38082 12.9219 4.35693H12.9307Z" fill="currentColor"/>
</g>
<defs>
<clipPath id="clip0_1504_16484">
<rect width="24" height="24" fill="currentColor" transform="translate(0.829102)"/>
</clipPath>
</defs>
</svg>
