<svg viewBox="0 0 25 24" fill="none" xmlns="http://www.w3.org/2000/svg">
<g clip-path="url(#clip0_1504_16488)">
<path d="M12.8291 22.4001C16.2197 22.3069 19.04 21.1423 21.29 18.9062C23.5556 16.6547 24.7353 13.8441 24.8291 10.4744C24.8291 8.81293 24.5088 7.24461 23.8682 5.76942C23.2275 4.29424 22.2979 2.9821 21.0791 1.83302C20.9228 1.67774 20.7354 1.6001 20.5166 1.6001H5.1416C4.92285 1.6001 4.73535 1.67774 4.5791 1.83302C3.36035 2.9821 2.43066 4.29424 1.79004 5.76942C1.14942 7.24461 0.829102 8.81293 0.829102 10.4744C0.922847 13.8441 2.09472 16.6547 4.34472 18.9062C6.61035 21.1423 9.4385 22.3069 12.8291 22.4001ZM5.46972 3.23056H20.165C21.1494 4.20883 21.8916 5.31909 22.3916 6.56135C22.9072 7.7881 23.1728 9.09243 23.1884 10.4744C23.1104 13.3938 22.0947 15.8239 20.1416 17.7649C18.1885 19.6905 15.751 20.692 12.8291 20.7696C9.89159 20.692 7.44629 19.6905 5.49317 17.7649C3.55566 15.8239 2.54785 13.3938 2.46972 10.4744C2.46972 9.09243 2.72754 7.7881 3.24317 6.56135C3.75879 5.31909 4.50097 4.20883 5.46972 3.23056ZM18.9698 4.34858C19.8291 5.15605 20.501 6.11104 20.9853 7.2135C21.4854 8.31607 21.7431 9.50393 21.7588 10.7772C21.6963 13.2928 20.8213 15.3891 19.1338 17.0662C17.4619 18.7277 15.3603 19.5895 12.8291 19.6516C10.2979 19.5895 8.18844 18.7277 6.50098 17.0662C4.8291 15.3891 3.96192 13.2928 3.89941 10.7772C3.89941 9.50393 4.1416 8.32379 4.62598 7.23681C5.12598 6.13432 5.81347 5.17158 6.68848 4.34858H12.8291C16.4072 4.34858 18.4541 4.34858 18.9698 4.34858ZM15.4307 6.02563C15.0557 6.02563 14.7432 6.14986 14.4932 6.3983C14.2588 6.64676 14.1416 6.95731 14.1416 7.32998C14.1416 7.68713 14.2588 7.98995 14.4932 8.23842C14.7432 8.47129 15.0478 8.58777 15.4072 8.58777C15.7822 8.58777 16.0869 8.47129 16.3213 8.23842C16.5713 7.98995 16.6963 7.68713 16.6963 7.32998C16.6963 6.95731 16.5713 6.64676 16.3213 6.3983C16.0869 6.14986 15.79 6.02563 15.4307 6.02563ZM10.2275 6.02563C9.86819 6.02563 9.56347 6.14986 9.31344 6.3983C9.0791 6.64676 8.96193 6.95731 8.96193 7.32998C8.96193 7.68713 9.0791 7.98995 9.31344 8.23842C9.56347 8.47129 9.86819 8.58777 10.2275 8.58777C10.6025 8.58777 10.9072 8.47129 11.1416 8.23842C11.3916 7.98995 11.5166 7.68713 11.5166 7.32998C11.5166 6.95731 11.3916 6.64676 11.1416 6.3983C10.9072 6.14986 10.6025 6.02563 10.2275 6.02563ZM5.7041 11.0102C5.7041 11.5537 5.88379 12.0117 6.24317 12.3844C6.61817 12.7415 7.0791 12.9202 7.62598 12.9202C8.18844 12.9202 8.64942 12.7415 9.00882 12.3844C9.38382 12.0117 9.57127 11.5537 9.57127 11.0102C9.57127 10.4512 9.38382 9.99307 9.00882 9.63592C8.64942 9.26325 8.18844 9.07692 7.62598 9.07692C7.0791 9.07692 6.61817 9.26325 6.24317 9.63592C5.88379 9.99307 5.7041 10.4512 5.7041 11.0102ZM10.2275 17.4622C10.7744 17.4466 11.2275 17.2602 11.5869 16.9031C11.9619 16.5304 12.1494 16.0724 12.1494 15.5289C12.1494 14.9699 11.9619 14.5118 11.5869 14.1546C11.2275 13.7975 10.7744 13.6189 10.2275 13.6189C9.68064 13.6189 9.21976 13.7975 8.84476 14.1546C8.48536 14.5118 8.3057 14.9699 8.3057 15.5289C8.3057 16.0724 8.48536 16.5304 8.84476 16.9031C9.21976 17.2602 9.68064 17.4466 10.2275 17.4622ZM10.8838 11.0335C10.8994 11.577 11.0869 12.035 11.4463 12.4077C11.8213 12.7648 12.2822 12.9435 12.8291 12.9435C13.3916 12.9435 13.8525 12.7648 14.2119 12.4077C14.5713 12.035 14.751 11.577 14.751 11.0335C14.751 10.4744 14.5713 10.0164 14.2119 9.65923C13.8525 9.28657 13.3916 9.10023 12.8291 9.10023C12.2822 9.10023 11.8213 9.28657 11.4463 9.65923C11.0869 10.0164 10.8994 10.4744 10.8838 11.0335ZM15.4307 17.4622C15.9776 17.4466 16.4306 17.2602 16.79 16.9031C17.165 16.5304 17.3525 16.0724 17.3525 15.5289C17.3525 14.9699 17.165 14.5118 16.79 14.1546C16.4306 13.7975 15.9776 13.6189 15.4307 13.6189C14.8838 13.6189 14.4229 13.7975 14.0479 14.1546C13.6885 14.5118 13.5088 14.9699 13.5088 15.5289C13.5088 16.0724 13.6885 16.5304 14.0479 16.9031C14.4229 17.2602 14.8838 17.4466 15.4307 17.4622ZM18.0088 12.9435C18.5713 12.9279 19.0322 12.7415 19.3916 12.3844C19.7666 12.0117 19.9541 11.5537 19.9541 11.0102C19.9541 10.4512 19.7666 9.99307 19.3916 9.63592C19.0322 9.26325 18.5713 9.07692 18.0088 9.07692C17.4619 9.07692 17.001 9.26325 16.626 9.63592C16.2666 9.99307 16.0869 10.4512 16.0869 11.0102C16.0869 11.5537 16.2666 12.0117 16.626 12.3844C17.001 12.7415 17.4619 12.9279 18.0088 12.9435Z" fill="currentColor"/>
</g>
<defs>
<clipPath id="clip0_1504_16488">
<rect width="24" height="24" fill="currentColor" transform="translate(0.829102)"/>
</clipPath>
</defs>
</svg>
