<svg viewBox="0 0 25 24" fill="none" xmlns="http://www.w3.org/2000/svg">
<path fill-rule="evenodd" clip-rule="evenodd" d="M12.8291 22.0805C18.3961 22.0805 22.9091 17.5675 22.9091 12.0005C22.9091 6.43346 18.3961 1.92049 12.8291 1.92049C7.26207 1.92049 2.7491 6.43346 2.7491 12.0005C2.7491 17.5675 7.26207 22.0805 12.8291 22.0805ZM12.8291 20.4005C17.4683 20.4005 21.2291 16.6397 21.2291 12.0005C21.2291 7.3613 17.4683 3.60049 12.8291 3.60049C8.18991 3.60049 4.4291 7.3613 4.4291 12.0005C4.4291 16.6397 8.18991 20.4005 12.8291 20.4005Z" fill="currentColor"/>
<path fill-rule="evenodd" clip-rule="evenodd" d="M12.8291 2.34049C7.49403 2.34049 3.1691 6.66542 3.1691 12.0005C3.1691 17.3356 7.49403 21.6605 12.8291 21.6605C18.1642 21.6605 22.4891 17.3356 22.4891 12.0005C22.4891 6.66542 18.1642 2.34049 12.8291 2.34049ZM2.3291 12.0005C2.3291 6.2015 7.03011 1.50049 12.8291 1.50049C18.6281 1.50049 23.3291 6.2015 23.3291 12.0005C23.3291 17.7995 18.6281 22.5005 12.8291 22.5005C7.03011 22.5005 2.3291 17.7995 2.3291 12.0005ZM12.8291 4.02049C8.42187 4.02049 4.8491 7.59326 4.8491 12.0005C4.8491 16.4077 8.42187 19.9805 12.8291 19.9805C17.2363 19.9805 20.8091 16.4077 20.8091 12.0005C20.8091 7.59326 17.2363 4.02049 12.8291 4.02049ZM4.0091 12.0005C4.0091 7.12934 7.95795 3.18049 12.8291 3.18049C17.7003 3.18049 21.6491 7.12934 21.6491 12.0005C21.6491 16.8716 17.7003 20.8205 12.8291 20.8205C7.95795 20.8205 4.0091 16.8716 4.0091 12.0005Z" fill="currentColor"/>
<path d="M13.6484 5.02295V11.6587H16.959L11.9785 18.3091V11.6587H8.66797L13.6484 5.02295Z" fill="currentColor"/>
</svg>
