<svg viewBox="0 0 25 24" fill="none" xmlns="http://www.w3.org/2000/svg">
<g clip-path="url(#clip0_1504_16444)">
<path d="M10.2071 7.4082L7.24219 12.0024H9.21883V16.5967L12.1838 12.0024H10.2071V7.4082Z" fill="currentColor"/>
<path d="M16.214 21.7862L16.1337 13.012H14.6731L14.7534 21.7862H4.62439L4.44912 2.21237H14.5782L14.6366 8.63217H16.0972L16.0315 0.75H2.98125L3.16382 21.7862H1.5791V23.2486H17.6235V21.7862H16.214Z" fill="currentColor"/>
<path d="M23.349 3.72557H22.6406V5.18794H21.1801V3.72557H20.4498V5.18794H19.7268C19.7268 5.64127 19.8656 6.07999 20.1285 6.44558C20.3841 6.81117 20.7565 7.09634 21.1801 7.24258V15.4172C21.1509 15.8633 20.7419 16.0606 20.5667 16.1191C20.4352 16.1631 20.2818 16.1923 20.1285 16.1923C19.8656 16.1923 19.5881 16.1119 19.3909 15.8998C19.1791 15.6732 19.1572 15.5635 19.1572 15.4611V13.7136C19.1572 13.5454 19.1572 13.3772 19.1572 13.209C19.1718 12.2146 19.1937 11.2714 18.551 10.6207C18.1567 10.2185 17.6017 10.0211 16.8495 10.0211H14.3008V11.4834H16.8495C17.1708 11.4834 17.4118 11.5419 17.5067 11.6443C17.7185 11.8564 17.704 12.5291 17.6893 13.1798C17.6893 13.3553 17.6893 13.5308 17.6893 13.7063V15.4538C17.6893 16.1484 18.0545 16.609 18.3174 16.8942C18.7774 17.3841 19.4274 17.6547 20.1139 17.6547C20.4206 17.6547 20.7346 17.6035 21.0486 17.4938C21.9615 17.1648 22.5676 16.4044 22.626 15.4611V7.24258C23.0496 7.08902 23.4148 6.81117 23.6777 6.44558C23.9406 6.07999 24.0793 5.63397 24.0793 5.18063H23.3344V3.71826L23.349 3.72557Z" fill="currentColor"/>
</g>
<defs>
<clipPath id="clip0_1504_16444">
<rect width="24" height="24" fill="currentColor" transform="translate(0.829102)"/>
</clipPath>
</defs>
</svg>
