<svg viewBox="0 0 25 24" fill="none" xmlns="http://www.w3.org/2000/svg">
<g clip-path="url(#clip0_1504_16448)">
<path d="M23.9033 11.9995C23.8154 15.1342 22.7314 17.7417 20.6514 19.8218C18.5713 21.9018 15.9638 22.9859 12.8291 23.0737C9.69437 22.9859 7.08692 21.9018 5.00683 19.8218C2.92676 17.7417 1.84277 15.1342 1.75488 11.9995C1.84277 8.86478 2.92676 6.25733 5.00683 4.17724C7.08692 2.09717 9.69437 1.01318 12.8291 0.925293C15.9638 1.01318 18.5713 2.09717 20.6514 4.17724C22.7314 6.25733 23.8154 8.86478 23.9033 11.9995ZM13.0488 4.39697C12.7266 4.71923 11.4229 6.02295 9.13766 8.30807L5.22656 12.2192L13.0488 20.0415L20.8711 12.2192L13.0488 4.39697ZM14.2573 13.7573C14.228 13.7427 14.1328 13.6548 13.9717 13.4937L13.686 13.208L14.6968 12.1973H10.1264V14.043H9.37937V11.4502H14.6528L13.686 10.4834L14.2573 9.93409L16.147 11.8237L14.2573 13.7573ZM12.8291 1.12304C9.75295 1.19629 7.18945 2.2583 5.13867 4.30908C3.08789 6.35986 2.02588 8.92336 1.95263 11.9995C2.02588 15.0757 3.08789 17.6391 5.13867 19.6899C7.18945 21.7407 9.75295 22.8027 12.8291 22.876C15.9053 22.8027 18.4687 21.7407 20.5195 19.6899C22.5703 17.6391 23.6323 15.0757 23.7056 11.9995C23.6323 8.92336 22.5703 6.35986 20.5195 4.30908C18.4687 2.2583 15.9053 1.19629 12.8291 1.12304ZM1.5791 11.9995C1.65235 8.80612 2.74365 6.15478 4.85303 4.04541C6.97705 1.92138 9.63571 0.822757 12.8291 0.749512C16.0225 0.822757 18.6738 1.92138 20.7832 4.04541C22.9073 6.15478 24.0059 8.80612 24.0791 11.9995C24.0059 15.1929 22.9073 17.8516 20.7832 19.9756C18.6738 22.085 16.0225 23.1763 12.8291 23.2495C9.63571 23.1763 6.97705 22.085 4.85303 19.9756C2.74365 17.8516 1.65235 15.1929 1.5791 11.9995ZM13.0488 4.1333C13.3857 4.47022 14.7334 5.81787 17.0918 8.17628L21.1347 12.2192L13.0488 20.3051L4.96289 12.2192L13.0488 4.1333ZM5.49024 12.2192C5.79785 12.5268 7.05762 13.7867 9.26952 15.9986L13.0488 19.7778L20.6074 12.2192L13.0488 4.66065L5.49024 12.2192ZM14.2573 9.67044C14.3452 9.75827 14.7041 10.1172 15.334 10.7471L16.4106 11.8237L14.2573 14.021L13.4224 13.208L14.2573 12.395H10.3242V14.2187H9.18161V11.2524H14.2134L13.4224 10.4834L14.2573 9.67044ZM13.9497 10.4834C13.9936 10.5274 14.1841 10.7177 14.521 11.0547L15.1143 11.626H9.55519V13.8452H9.95071V12.0214H15.1362L13.9497 13.208L14.2354 13.4937L15.8833 11.8237L14.2573 10.1758L13.9497 10.4834Z" fill="currentColor"/>
</g>
<defs>
<clipPath id="clip0_1504_16448">
<rect width="24" height="24" fill="currentColor" transform="translate(0.829102)"/>
</clipPath>
</defs>
</svg>
