<svg viewBox="0 0 25 24" fill="none" xmlns="http://www.w3.org/2000/svg">
<g clip-path="url(#clip0_1504_16435)">
<path fill-rule="evenodd" clip-rule="evenodd" d="M3.2472 16.5565L1.5791 16.3676L2.49681 14.962L8.83715 5.25H22.5705H24.0791L23.9178 6.75L22.7878 17.2586L22.6275 18.75L21.137 18.5813L3.2472 16.5565ZM21.2974 17.0899L4.16491 15.1508L9.64925 6.75H22.4092L21.2974 17.0899ZM16.828 10.536C16.828 9.222 15.901 8.34 14.398 8.34H12.112V15H13.165V12.732H14.344C15.856 12.732 16.828 11.85 16.828 10.536ZM15.739 10.572C15.739 11.373 15.262 11.814 14.434 11.814H13.165V9.294H14.425C15.262 9.294 15.739 9.735 15.739 10.572Z" fill="currentColor"/>
</g>
<defs>
<clipPath id="clip0_1504_16435">
<rect width="24" height="24" fill="currentColor" transform="translate(0.829102)"/>
</clipPath>
</defs>
</svg>
