<svg viewBox="0 0 25 24" fill="none" xmlns="http://www.w3.org/2000/svg">
<g clip-path="url(#clip0_1504_16437)">
<path d="M18.4599 9.02183V0.75H1.57812V20.25H10.2442C10.0965 19.8319 9.98563 19.3964 9.91567 18.9474H2.88073V2.0526H17.1573V9.00002C17.2774 9.00029 17.3969 9.00345 17.5156 9.00945C17.6398 9.00318 17.7649 9 17.8906 9C18.0822 9 18.272 9.00737 18.4599 9.02183Z" fill="currentColor"/>
<path d="M9.82813 16.3125C9.82813 16.072 9.83973 15.8342 9.86242 15.5997H5.17285V16.9023H9.85157C9.83604 16.7078 9.82813 16.5111 9.82813 16.3125Z" fill="currentColor"/>
<path d="M9.97558 14.8442C10.0674 14.3935 10.2008 13.9579 10.3714 13.5416H5.17285V14.8442H9.97558Z" fill="currentColor"/>
<path d="M12.0529 11.0601C12.26 10.8595 12.4789 10.671 12.7085 10.4957V8.20091C12.7085 7.2435 13.1254 6.89831 13.6204 6.89831C14.1153 6.89831 14.2717 7.19791 14.2717 7.64079V8.14229L15.0988 7.99249V7.34119C15.1234 7.17654 15.1119 7.00851 15.065 6.84874C15.0181 6.68904 14.937 6.54143 14.8273 6.41623C14.7175 6.29102 14.5819 6.19121 14.4297 6.12374C14.2775 6.05627 14.1125 6.02276 13.946 6.02554C13.6933 6.02785 13.4464 6.10113 13.2333 6.23702C13.0203 6.3729 12.8497 6.56593 12.7411 6.7941V6.14277H11.6925V11.0601H12.0529Z" fill="currentColor"/>
<path d="M6.65142 8.66985L7.39391 7.87526L9.56274 11.0276H10.8653L8.06475 7.16534L10.8328 4.2084H9.53018L6.65794 7.34771V4.2084H5.57678V11.0015H6.65142V8.66985Z" fill="currentColor"/>
<path d="M18.3281 12.75V17.0455L21.8281 16.7613V18H17.3281V12.75H18.3281Z" fill="currentColor"/>
<path fill-rule="evenodd" clip-rule="evenodd" d="M17.1781 12.6H18.4781V16.8828L21.9781 16.5987V18.15H17.1781V12.6ZM17.4781 12.9V17.85H21.6781V16.924L18.1781 17.2081V12.9H17.4781Z" fill="currentColor"/>
<path fill-rule="evenodd" clip-rule="evenodd" d="M10.6889 16.875C10.6889 13.0014 13.8295 9.86075 17.7031 9.86075C21.5767 9.86075 24.7174 13.0014 24.7174 16.875C24.7174 20.7492 21.5767 23.8893 17.7031 23.8893C13.8295 23.8893 10.6889 20.7492 10.6889 16.875ZM11.6937 16.875C11.6937 20.1933 14.3842 22.8844 17.7031 22.8844C21.022 22.8844 23.7126 20.1933 23.7126 16.875C23.7126 13.5561 21.022 10.8655 17.7031 10.8655C14.3842 10.8655 11.6937 13.5561 11.6937 16.875Z" fill="currentColor"/>
<path fill-rule="evenodd" clip-rule="evenodd" d="M17.7031 9.9715C13.8907 9.9715 10.7996 13.0625 10.7996 16.875C10.7996 20.688 13.8907 23.7785 17.7031 23.7785C21.5156 23.7785 24.6066 20.688 24.6066 16.875C24.6066 13.0625 21.5156 9.9715 17.7031 9.9715ZM10.5781 16.875C10.5781 12.9402 13.7683 9.75 17.7031 9.75C21.6379 9.75 24.8281 12.9402 24.8281 16.875C24.8281 20.8104 21.6379 24 17.7031 24C13.7683 24 10.5781 20.8104 10.5781 16.875ZM11.5829 16.875C11.5829 13.4949 14.3231 10.7548 17.7031 10.7548C21.0832 10.7548 23.8233 13.4949 23.8233 16.875C23.8233 20.2545 21.0832 22.9952 17.7031 22.9952C14.323 22.9952 11.5829 20.2545 11.5829 16.875ZM17.7031 10.9763C14.4454 10.9763 11.8044 13.6173 11.8044 16.875C11.8044 20.1322 14.4454 22.7737 17.7031 22.7737C20.9609 22.7737 23.6018 20.1322 23.6018 16.875C23.6018 13.6173 20.9609 10.9763 17.7031 10.9763Z" fill="currentColor"/>
</g>
<defs>
<clipPath id="clip0_1504_16437">
<rect width="24" height="24" fill="currentColor" transform="translate(0.829102)"/>
</clipPath>
</defs>
</svg>
