<svg  viewBox="0 0 25 24" fill="none" xmlns="http://www.w3.org/2000/svg">
<path fill-rule="evenodd" clip-rule="evenodd" d="M4.5791 2.24951H21.0791V9.74951C21.0791 13.6657 18.9636 16.6706 16.6867 18.7723C15.5564 19.8156 14.4206 20.6026 13.5664 21.1283C13.2847 21.3016 13.0353 21.4455 12.8291 21.5598C12.6229 21.4455 12.3735 21.3016 12.0918 21.1283C11.2376 20.6026 10.1018 19.8156 8.97152 18.7723C6.69463 16.6706 4.5791 13.6657 4.5791 9.74951L4.5791 2.24951ZM3.0791 9.74951V0.749512H22.5791V9.74951C22.5791 18.7495 12.8291 23.2495 12.8291 23.2495C12.8291 23.2495 3.0791 18.7495 3.0791 9.74951ZM10.3365 12.5024L11.3343 13.4999L12.3321 12.5024L17.3291 7.50365L16.5817 6.7499L11.3343 11.9961L9.07257 9.74615L8.3291 10.5074L10.3365 12.5024Z" fill="currentColor"/>
<path d="M21.0791 2.24951H21.2666V2.06201H21.0791V2.24951ZM4.5791 2.24951V2.06201H4.3916L4.3916 2.24951L4.5791 2.24951ZM16.6867 18.7723L16.5595 18.6345L16.5595 18.6345L16.6867 18.7723ZM13.5664 21.1283L13.4681 20.9686L13.4681 20.9686L13.5664 21.1283ZM12.8291 21.5598L12.7382 21.7238L12.8291 21.7742L12.92 21.7238L12.8291 21.5598ZM12.0918 21.1283L12.1901 20.9686L12.1901 20.9686L12.0918 21.1283ZM8.97152 18.7723L9.0987 18.6345L9.0987 18.6345L8.97152 18.7723ZM4.5791 9.74951L4.3916 9.74951V9.74951L4.5791 9.74951ZM3.0791 0.749512V0.562012H2.8916V0.749512H3.0791ZM22.5791 0.749512H22.7666V0.562012H22.5791V0.749512ZM12.8291 23.2495L12.7505 23.4198L12.8291 23.456L12.9077 23.4198L12.8291 23.2495ZM11.3343 13.4999L11.2018 13.6325L11.3343 13.765L11.4669 13.6325L11.3343 13.4999ZM10.3365 12.5024L10.469 12.3698L10.4687 12.3694L10.3365 12.5024ZM12.3321 12.5024L12.4647 12.635L12.4647 12.635L12.3321 12.5024ZM17.3291 7.50365L17.4617 7.63621L17.5937 7.50418L17.4622 7.37163L17.3291 7.50365ZM16.5817 6.7499L16.7148 6.61788L16.5823 6.48418L16.4491 6.6173L16.5817 6.7499ZM11.3343 11.9961L11.2021 12.1291L11.3346 12.261L11.4669 12.1287L11.3343 11.9961ZM9.07257 9.74615L9.20481 9.61322L9.07065 9.47976L8.93844 9.61514L9.07257 9.74615ZM8.3291 10.5074L8.19496 10.3764L8.06509 10.5094L8.19692 10.6404L8.3291 10.5074ZM21.0791 2.24951V2.06201H4.5791V2.24951V2.43701H21.0791V2.24951ZM21.0791 9.74951H21.2666V2.24951H21.0791H20.8916V9.74951H21.0791ZM16.6867 18.7723L16.8139 18.9101C19.1109 16.7897 21.2666 13.7386 21.2666 9.74951H21.0791H20.8916C20.8916 13.5929 18.8162 16.5514 16.5595 18.6345L16.6867 18.7723ZM13.5664 21.1283L13.6647 21.288C14.5263 20.7577 15.6725 19.9636 16.8139 18.9101L16.6867 18.7723L16.5595 18.6345C15.4403 19.6677 14.3148 20.4475 13.4681 20.9686L13.5664 21.1283ZM12.8291 21.5598L12.92 21.7238C13.1285 21.6082 13.3803 21.4629 13.6647 21.288L13.5664 21.1283L13.4681 20.9686C13.189 21.1403 12.9422 21.2828 12.7382 21.3958L12.8291 21.5598ZM12.0918 21.1283L11.9935 21.288C12.2779 21.4629 12.5297 21.6082 12.7382 21.7238L12.8291 21.5598L12.92 21.3958C12.7161 21.2828 12.4692 21.1403 12.1901 20.9686L12.0918 21.1283ZM8.97152 18.7723L8.84434 18.9101C9.98569 19.9636 11.1319 20.7577 11.9935 21.288L12.0918 21.1283L12.1901 20.9686C11.3434 20.4475 10.2179 19.6677 9.0987 18.6345L8.97152 18.7723ZM4.5791 9.74951L4.3916 9.74951C4.3916 13.7386 6.54727 16.7897 8.84434 18.9101L8.97152 18.7723L9.0987 18.6345C6.84199 16.5514 4.7666 13.5929 4.7666 9.74951L4.5791 9.74951ZM4.5791 2.24951L4.3916 2.24951L4.3916 9.74951L4.5791 9.74951L4.7666 9.74951L4.7666 2.24951L4.5791 2.24951ZM3.0791 0.749512H2.8916V9.74951H3.0791H3.2666V0.749512H3.0791ZM22.5791 0.749512V0.562012H3.0791V0.749512V0.937012H22.5791V0.749512ZM22.5791 9.74951H22.7666V0.749512H22.5791H22.3916V9.74951H22.5791ZM12.8291 23.2495C12.9077 23.4198 12.9078 23.4197 12.9079 23.4196C12.908 23.4196 12.9082 23.4195 12.9084 23.4194C12.9088 23.4193 12.9093 23.419 12.91 23.4187C12.9113 23.4181 12.9132 23.4172 12.9158 23.416C12.9208 23.4136 12.9281 23.4102 12.9377 23.4056C12.9569 23.3965 12.985 23.3829 13.0214 23.365C13.0943 23.3291 13.2006 23.2756 13.3355 23.2044C13.6054 23.0621 13.9899 22.8491 14.4508 22.5654C15.3724 21.9983 16.6015 21.1475 17.8313 20.0123C20.2889 17.7438 22.7666 14.3225 22.7666 9.74951H22.5791H22.3916C22.3916 14.1765 19.9943 17.5053 17.5769 19.7367C16.3692 20.8515 15.1608 21.6882 14.2543 22.2461C13.8012 22.5249 13.4239 22.7338 13.1606 22.8727C13.0289 22.9422 12.9257 22.9941 12.8558 23.0286C12.8208 23.0458 12.7942 23.0586 12.7764 23.0671C12.7676 23.0713 12.7609 23.0744 12.7566 23.0764C12.7544 23.0775 12.7528 23.0782 12.7518 23.0787C12.7513 23.0789 12.7509 23.0791 12.7507 23.0792C12.7506 23.0792 12.7506 23.0793 12.7505 23.0793C12.7505 23.0793 12.7505 23.0793 12.8291 23.2495ZM3.0791 9.74951H2.8916C2.8916 14.3225 5.36935 17.7438 7.82692 20.0123C9.05673 21.1475 10.2858 21.9983 11.2074 22.5654C11.6684 22.8491 12.0529 23.0621 12.3227 23.2044C12.4576 23.2756 12.5639 23.3291 12.6368 23.365C12.6732 23.3829 12.7013 23.3965 12.7205 23.4056C12.7301 23.4102 12.7374 23.4136 12.7424 23.416C12.745 23.4172 12.7469 23.4181 12.7482 23.4187C12.7489 23.419 12.7494 23.4193 12.7498 23.4194C12.75 23.4195 12.7502 23.4196 12.7503 23.4196C12.7504 23.4197 12.7505 23.4198 12.8291 23.2495C12.9077 23.0793 12.9077 23.0793 12.9077 23.0793C12.9076 23.0793 12.9076 23.0792 12.9075 23.0792C12.9073 23.0791 12.9069 23.0789 12.9064 23.0787C12.9054 23.0782 12.9038 23.0775 12.9016 23.0764C12.8973 23.0744 12.8906 23.0713 12.8818 23.0671C12.864 23.0586 12.8374 23.0458 12.8024 23.0286C12.7325 22.9941 12.6293 22.9422 12.4976 22.8727C12.2343 22.7338 11.857 22.5249 11.4039 22.2461C10.4974 21.6882 9.28897 20.8515 8.08128 19.7367C5.66386 17.5053 3.2666 14.1765 3.2666 9.74951H3.0791ZM11.3343 13.4999L11.4669 13.3673L10.469 12.3698L10.3365 12.5024L10.2039 12.635L11.2018 13.6325L11.3343 13.4999ZM12.3321 12.5024L12.1996 12.3698L11.2018 13.3673L11.3343 13.4999L11.4669 13.6325L12.4647 12.635L12.3321 12.5024ZM17.3291 7.50365L17.1965 7.37109L12.1995 12.3698L12.3321 12.5024L12.4647 12.635L17.4617 7.63621L17.3291 7.50365ZM16.5817 6.7499L16.4486 6.88192L17.196 7.63567L17.3291 7.50365L17.4622 7.37163L16.7148 6.61788L16.5817 6.7499ZM11.3343 11.9961L11.4669 12.1287L16.7143 6.88249L16.5817 6.7499L16.4491 6.6173L11.2017 11.8635L11.3343 11.9961ZM9.07257 9.74615L8.94034 9.87907L11.2021 12.1291L11.3343 11.9961L11.4666 11.8632L9.20481 9.61322L9.07257 9.74615ZM8.3291 10.5074L8.46324 10.6384L9.20671 9.87715L9.07257 9.74615L8.93844 9.61514L8.19496 10.3764L8.3291 10.5074ZM10.3365 12.5024L10.4687 12.3694L8.46127 10.3744L8.3291 10.5074L8.19692 10.6404L10.2043 12.6354L10.3365 12.5024Z" fill="currentColor"/>
</svg>
