<svg viewBox="0 0 25 24" fill="none" xmlns="http://www.w3.org/2000/svg">
<path d="M6.75167 15.7412L9.67491 18.4721L8.2133 19.8376L5.29004 17.1067L6.75167 15.7412Z" fill="currentColor"/>
<path d="M8.21301 17.1067L5.28975 19.8376L3.82812 18.4722L6.75139 15.7412L8.21301 17.1067Z" fill="currentColor"/>
<path d="M6.75167 8.33154L9.67491 11.0624L8.2133 12.4279L5.29004 9.69699L6.75167 8.33154Z" fill="currentColor"/>
<path d="M8.21301 9.69662L5.28975 12.4274L3.82812 11.062L6.75181 8.33154L8.21301 9.69662Z" fill="currentColor"/>
<path d="M6.75167 1.50049L9.67492 4.23138L8.2133 5.59683L5.29004 2.86594L6.75167 1.50049Z" fill="currentColor"/>
<path d="M8.21302 2.86556L5.28976 5.59646L3.82812 4.23101L6.75168 1.50049L8.21302 2.86556Z" fill="currentColor"/>
<path d="M7.7557 14.1726C7.7557 14.6792 7.31611 15.0899 6.77385 15.0899C6.23158 15.0899 5.79199 14.6792 5.79199 14.1726C5.79199 13.666 6.23158 13.2554 6.77385 13.2554C7.31611 13.2554 7.7557 13.666 7.7557 14.1726Z" fill="currentColor"/>
<path d="M7.7557 21.5823C7.7557 22.0888 7.31611 22.4995 6.77385 22.4995C6.23158 22.4995 5.79199 22.0888 5.79199 21.5823C5.79199 21.0757 6.23158 20.665 6.77385 20.665C7.31611 20.665 7.7557 21.0757 7.7557 21.5823Z" fill="currentColor"/>
<path d="M7.7557 6.76196C7.7557 7.26854 7.31611 7.67918 6.77385 7.67918C6.23158 7.67918 5.79199 7.26854 5.79199 6.76196C5.79199 6.25539 6.23158 5.84473 6.77385 5.84473C7.31611 5.84473 7.7557 6.25539 7.7557 6.76196Z" fill="currentColor"/>
<path d="M18.904 15.7412L21.8273 18.4721L20.3657 19.8376L17.4424 17.1067L18.904 15.7412Z" fill="currentColor"/>
<path d="M20.3663 17.1067L17.443 19.8376L15.9814 18.4721L18.9045 15.7412L20.3663 17.1067Z" fill="currentColor"/>
<path d="M18.905 8.33154L21.8282 11.0624L20.3666 12.4279L17.4434 9.69699L18.905 8.33154Z" fill="currentColor"/>
<path d="M20.3663 9.69662L17.443 12.4275L15.9814 11.0621L18.9051 8.33154L20.3663 9.69662Z" fill="currentColor"/>
<path d="M18.905 1.50049L21.8282 4.23138L20.3666 5.59682L17.4434 2.86593L18.905 1.50049Z" fill="currentColor"/>
<path d="M20.3663 2.86556L17.443 5.59645L15.9814 4.231L18.905 1.50049L20.3663 2.86556Z" fill="currentColor"/>
<path d="M19.909 14.1726C19.909 14.6792 19.4695 15.0899 18.9272 15.0899C18.385 15.0899 17.9453 14.6792 17.9453 14.1726C17.9453 13.6661 18.385 13.2554 18.9272 13.2554C19.4695 13.2554 19.909 13.6661 19.909 14.1726Z" fill="currentColor"/>
<path d="M19.909 21.5828C19.909 22.0894 19.4695 22.5 18.9272 22.5C18.385 22.5 17.9453 22.0894 17.9453 21.5828C17.9453 21.0762 18.385 20.6655 18.9272 20.6655C19.4695 20.6655 19.909 21.0762 19.909 21.5828Z" fill="currentColor"/>
<path d="M19.909 6.76197C19.909 7.26854 19.4695 7.67924 18.9272 7.67924C18.385 7.67924 17.9453 7.26854 17.9453 6.76197C17.9453 6.25539 18.385 5.84473 18.9272 5.84473C19.4695 5.84473 19.909 6.25539 19.909 6.76197Z" fill="currentColor"/>
<path d="M12.8835 18.2764L15.8067 21.0073L14.3452 22.3727L11.4219 19.6418L12.8835 18.2764Z" fill="currentColor"/>
<path d="M14.3459 19.6414L11.4226 22.3723L9.96094 21.0068L12.884 18.2764L14.3459 19.6414Z" fill="currentColor"/>
<path d="M12.8835 10.8662L15.8067 13.5971L14.3452 14.9626L11.4219 12.2317L12.8835 10.8662Z" fill="currentColor"/>
<path d="M14.3448 12.231L11.4216 14.9619L9.95996 13.5964L12.8831 10.8662L14.3448 12.231Z" fill="currentColor"/>
<path d="M12.8835 4.03418L15.8067 6.76507L14.3452 8.13049L11.4219 5.39963L12.8835 4.03418Z" fill="currentColor"/>
<path d="M14.3448 5.39948L11.4216 8.13033L9.95996 6.76492L12.8831 4.03418L14.3448 5.39948Z" fill="currentColor"/>
<path d="M13.8875 16.7072C13.8875 17.2138 13.4479 17.6245 12.9057 17.6245C12.3634 17.6245 11.9238 17.2138 11.9238 16.7072C11.9238 16.2007 12.3634 15.79 12.9057 15.79C13.4479 15.79 13.8875 16.2007 13.8875 16.7072Z" fill="currentColor"/>
<path d="M13.8875 9.29616C13.8875 9.80271 13.4479 10.2134 12.9057 10.2134C12.3634 10.2134 11.9238 9.80271 11.9238 9.29616C11.9238 8.78961 12.3634 8.37891 12.9057 8.37891C13.4479 8.37891 13.8875 8.78961 13.8875 9.29616Z" fill="currentColor"/>
<path d="M13.8875 2.41724C13.8875 2.92382 13.4479 3.33448 12.9057 3.33448C12.3634 3.33448 11.9238 2.92382 11.9238 2.41724C11.9238 1.91066 12.3634 1.5 12.9057 1.5C13.4479 1.5 13.8875 1.91066 13.8875 2.41724Z" fill="currentColor"/>
</svg>
