<svg width="96" height="96" viewBox="0 0 96 96" fill="none" xmlns="http://www.w3.org/2000/svg">
<mask id="mask0_1_8" style="mask-type:alpha" maskUnits="userSpaceOnUse" x="-1" y="-1" width="98" height="98">
<rect x="-1" y="-1" width="98" height="98" fill="#D9D9D9"/>
</mask>
<g mask="url(#mask0_1_8)">
<path d="M43.2021 65.7625H52.7979V48.5104L59.7396 55.4521L66.5792 48.7146L48 30.2375L29.4208 48.7146L36.2604 55.4521L43.2021 48.5104V65.7625ZM48 91.3854C42.0111 91.3854 36.3795 90.2625 31.1052 88.0167C25.8309 85.7708 21.2201 82.6743 17.2729 78.7271C13.3257 74.7799 10.2292 70.1691 7.98334 64.8948C5.73751 59.6205 4.61459 53.9889 4.61459 48C4.61459 41.9431 5.73751 36.2774 7.98334 31.0031C10.2292 25.7288 13.3257 21.1351 17.2729 17.2219C21.2201 13.3087 25.8309 10.2121 31.1052 7.93229C36.3795 5.65243 42.0111 4.5125 48 4.5125C54.057 4.5125 59.7226 5.65243 64.9969 7.93229C70.2712 10.2121 74.8649 13.3087 78.7781 17.2219C82.6913 21.1351 85.7879 25.7288 88.0677 31.0031C90.3476 36.2774 91.4875 41.9431 91.4875 48C91.4875 53.9889 90.3476 59.6205 88.0677 64.8948C85.7879 70.1691 82.6913 74.7799 78.7781 78.7271C74.8649 82.6743 70.2712 85.7708 64.9969 88.0167C59.7226 90.2625 54.057 91.3854 48 91.3854Z" fill="#1C1B1F"/>
</g>
</svg>
