<svg width="48" height="48" viewBox="0 0 48 48" fill="none" xmlns="http://www.w3.org/2000/svg">
<rect width="48" height="48" fill="#FCD34D"/>
<mask id="mask0_1219_3676" style="mask-type:alpha" maskUnits="userSpaceOnUse" x="4" y="4" width="40" height="40">
<rect x="4" y="4" width="40" height="40" fill="#D9D9D9"/>
</mask>
<g mask="url(#mask0_1219_3676)">
<path d="M12.4181 20.6649L16.2502 22.2966C16.6888 21.4349 17.1508 20.5856 17.636 19.7487C18.1213 18.912 18.6392 18.1002 19.1898 17.3132L16.3369 16.7462L12.4181 20.6649ZM18.781 24.2103L23.9827 29.4078C25.4669 28.7362 26.8798 27.9548 28.2215 27.0637C29.5631 26.1723 30.712 25.2484 31.6681 24.292C33.7876 22.1684 35.3787 19.9453 36.4415 17.6228C37.5042 15.3 38.0513 12.7957 38.0827 10.1099C35.3969 10.1416 32.8909 10.6888 30.5648 11.7516C28.2387 12.8143 26.016 14.4053 23.8969 16.5245C22.9405 17.4809 22.0167 18.6299 21.1256 19.9716C20.2342 21.3132 19.4527 22.7262 18.781 24.2103ZM27.714 20.4749C27.1395 19.9005 26.8523 19.1938 26.8523 18.3549C26.8523 17.5163 27.1395 16.8096 27.714 16.2349C28.2887 15.6649 28.996 15.3799 29.836 15.3799C30.676 15.3799 31.3833 15.6649 31.9577 16.2349C32.5277 16.8096 32.8127 17.5163 32.8127 18.3549C32.8127 19.1938 32.5277 19.9005 31.9577 20.4749C31.3833 21.0449 30.676 21.3299 29.836 21.3299C28.996 21.3299 28.2887 21.0449 27.714 20.4749ZM27.5181 35.7745L31.4469 31.8557L30.8798 29.0032C30.0928 29.5538 29.2809 30.071 28.444 30.5549C27.6073 31.0391 26.758 31.4982 25.896 31.9324L27.5181 35.7745ZM41.1635 7.02574C41.4905 10.886 41.0508 14.4125 39.8444 17.6053C38.638 20.7984 36.6422 23.7898 33.8569 26.5795C33.8252 26.6067 33.7928 26.6385 33.7598 26.6749C33.727 26.711 33.6969 26.7428 33.6694 26.7703L34.5581 31.2241C34.6642 31.7513 34.6378 32.2634 34.479 32.7603C34.3201 33.2575 34.0508 33.6962 33.671 34.0762L26.4648 41.3099L22.761 32.662L15.531 25.432L6.88271 21.7282L14.1131 14.522C14.4928 14.142 14.932 13.8727 15.4306 13.7141C15.929 13.5552 16.4417 13.5287 16.969 13.6345L21.4227 14.5237C21.4502 14.4962 21.4803 14.4728 21.5131 14.4537C21.5462 14.4345 21.5785 14.4112 21.6102 14.3837C24.3999 11.5895 27.3912 9.58282 30.584 8.36365C33.7767 7.14449 37.3033 6.69852 41.1635 7.02574ZM9.97604 30.557C11.0058 29.5273 12.2547 29.0066 13.7227 28.9949C15.1908 28.9832 16.4374 29.49 17.4627 30.5153C18.4838 31.5362 18.9885 32.7817 18.9769 34.252C18.9652 35.7225 18.4466 36.9705 17.421 37.9957C16.6594 38.7574 15.449 39.3939 13.7898 39.9053C12.1303 40.4167 9.78896 40.8628 6.76562 41.2437C7.14646 38.2203 7.58743 35.8727 8.08854 34.2007C8.58965 32.5288 9.21882 31.3142 9.97604 30.557ZM12.2098 32.7982C11.8667 33.1596 11.5592 33.7295 11.2873 34.5078C11.0153 35.2859 10.7869 36.2418 10.6019 37.3757C11.7358 37.1907 12.6917 36.9612 13.4698 36.687C14.2481 36.4131 14.8158 36.1046 15.1727 35.7616C15.6135 35.3624 15.8399 34.8673 15.8519 34.2762C15.8638 33.6853 15.6608 33.1695 15.2427 32.7287C14.8019 32.3109 14.286 32.1089 13.6952 32.1228C13.1044 32.1367 12.6092 32.3618 12.2098 32.7982Z" fill="#262626"/>
</g>
</svg>
